<?xml version="1.0" encoding="UTF-8" standalone="no"?>
<!-- Created with Inkscape (http://www.inkscape.org/) -->
<svg
   xmlns:dc="http://purl.org/dc/elements/1.1/"
   xmlns:cc="http://creativecommons.org/ns#"
   xmlns:rdf="http://www.w3.org/1999/02/22-rdf-syntax-ns#"
   xmlns:svg="http://www.w3.org/2000/svg"
   xmlns="http://www.w3.org/2000/svg"
   xmlns:sodipodi="http://sodipodi.sourceforge.net/DTD/sodipodi-0.dtd"
   xmlns:inkscape="http://www.inkscape.org/namespaces/inkscape"
   id="svg2440"
   sodipodi:version="0.32"
   inkscape:version="0.46"
   width="500"
   height="313"
   version="1.0"
   sodipodi:docname="Dunder Mifflin Inc.svg"
   inkscape:output_extension="org.inkscape.output.svg.inkscape">
  <metadata
     id="metadata2445">
    <rdf:RDF>
      <cc:Work
         rdf:about="">
        <dc:format>image/svg+xml</dc:format>
        <dc:type
           rdf:resource="http://purl.org/dc/dcmitype/StillImage" />
      </cc:Work>
    </rdf:RDF>
  </metadata>
  <defs
     id="defs2443">
    <inkscape:perspective
       sodipodi:type="inkscape:persp3d"
       inkscape:vp_x="0 : 526.18109 : 1"
       inkscape:vp_y="0 : 1000 : 0"
       inkscape:vp_z="744.09448 : 526.18109 : 1"
       inkscape:persp3d-origin="372.04724 : 350.78739 : 1"
       id="perspective2447" />
  </defs>
  <sodipodi:namedview
     inkscape:window-height="1018"
     inkscape:window-width="1920"
     inkscape:pageshadow="2"
     inkscape:pageopacity="0.0"
     guidetolerance="10.0"
     gridtolerance="10.0"
     objecttolerance="10.0"
     borderopacity="1.0"
     bordercolor="#666666"
     pagecolor="#ffffff"
     id="base"
     showgrid="false"
     inkscape:zoom="1.5386644"
     inkscape:cx="271.64544"
     inkscape:cy="212.54991"
     inkscape:window-x="-8"
     inkscape:window-y="-8"
     inkscape:current-layer="svg2440" />
  <rect
     style="opacity:1;fill:#000000;fill-opacity:1;fill-rule:evenodd;stroke:none;stroke-width:2;stroke-linecap:square;stroke-linejoin:miter;stroke-miterlimit:4;stroke-dasharray:none;stroke-dashoffset:0;stroke-opacity:1"
     id="rect3241"
     width="500"
     height="313"
     x="0"
     y="0" />
  <path
     style="opacity:1;fill:#ffffff;fill-opacity:1;fill-rule:evenodd;stroke:none;stroke-width:2;stroke-linecap:square;stroke-linejoin:miter;stroke-miterlimit:4;stroke-dasharray:none;stroke-dashoffset:0;stroke-opacity:1"
     d="M 89.265706,43.214146 C 98.399521,43.224334 107.53325,43.211709 116.66691,43.156701 C 128.11376,43.156701 136.60027,49.068585 136.60027,55.162675 C 136.60027,74.85979 136.60027,95.289667 136.60027,114.90532 C 136.72213,121.61946 128.1098,125.04846 121.29279,125.04846 C 117.77719,125.04846 111.51144,125.01562 106.72894,125.01562 L 89.265706,125.01562 L 89.265706,43.214146 z M 116.83924,107.09282 C 116.83924,91.507513 116.83924,75.824136 116.83924,60.217822 C 116.83924,57.113608 113.61641,57.00091 109.02674,57.00091 L 109.02674,84.57444 L 109.02674,111.33558 C 113.98672,111.33558 116.83924,110.32672 116.83924,107.09282 z"
     id="path2463"
     sodipodi:nodetypes="ccccsccccccccc" />
  <path
     style="opacity:1;fill:#ffffff;fill-opacity:1;fill-rule:evenodd;stroke:none;stroke-width:2;stroke-linecap:square;stroke-linejoin:miter;stroke-miterlimit:4;stroke-dasharray:none;stroke-dashoffset:0;stroke-opacity:1"
     d="M 146.247,110.032 L 146.2475,43.165704 L 166.98556,43.165704 C 166.98556,64.792143 166.98556,86.52437 166.98556,108.125 C 166.98556,112.06913 166.974,113.04736 170.05839,113.04736 C 173.11406,113.04736 173.06016,111.9753 173.06016,108.125 L 173.13169,43.165704 C 178.21194,43.165704 189.63147,43.165704 194.01289,43.165704 C 194.01289,65.15163 193.98416,88.334574 193.98416,110.032 C 193.98416,113.82592 193.31981,127.03519 169.91477,127.03519 C 146.39485,127.03519 146.247,113.97071 146.247,110.032 z"
     id="path3243"
     sodipodi:nodetypes="cccczcccszc" />
  <path
     style="opacity:1;fill:#ffffff;fill-opacity:1;fill-rule:evenodd;stroke:none;stroke-width:2;stroke-linecap:square;stroke-linejoin:miter;stroke-miterlimit:4;stroke-dasharray:none;stroke-dashoffset:0;stroke-opacity:1"
     d="M 203.082,43.1 C 207.69094,43.1 214.69357,43.099521 220.14936,43.099521 C 223.38956,54.206542 228.44032,68.477872 232.957,80.307351 L 232.957,43.099521 L 250.04541,43.099521 L 250.04541,125.15144 L 232.17277,125.15144 C 228.18459,113.11626 224.12021,101.1052 220.149,88.106323 L 220.149,125.15144 L 203.082,125.15144 C 203.082,97.819621 203.082,70.408045 203.082,43.1 z"
     id="path3265"
     sodipodi:nodetypes="ccccccccccc" />
  <path
     sodipodi:nodetypes="ccccsccccccccc"
     id="path3267"
     d="M 259.70574,43.214146 C 268.83955,43.224334 277.97328,43.211709 287.10694,43.156701 C 298.55379,43.156701 307.0403,49.068585 307.0403,55.162675 C 307.0403,74.85979 307.0403,95.289667 307.0403,114.90532 C 307.16216,121.61946 298.54983,125.04846 291.73282,125.04846 C 288.21722,125.04846 281.95147,125.01562 277.16897,125.01562 L 259.70574,125.01562 L 259.70574,43.214146 z M 287.27927,107.09282 C 287.27927,91.507513 287.27927,75.824136 287.27927,60.217822 C 287.27927,57.113608 284.05644,57.00091 279.46677,57.00091 L 279.46677,84.57444 L 279.46677,111.33558 C 284.42675,111.33558 287.27927,110.32672 287.27927,107.09282 z"
     style="opacity:1;fill:#ffffff;fill-opacity:1;fill-rule:evenodd;stroke:none;stroke-width:2;stroke-linecap:square;stroke-linejoin:miter;stroke-miterlimit:4;stroke-dasharray:none;stroke-dashoffset:0;stroke-opacity:1" />
  <path
     style="opacity:1;fill:#ffffff;fill-opacity:1;fill-rule:evenodd;stroke:none;stroke-width:2;stroke-linecap:square;stroke-linejoin:miter;stroke-miterlimit:4;stroke-dasharray:none;stroke-dashoffset:0;stroke-opacity:1"
     d="M 316.96051,43.020029 L 351.8934,43.020029 L 351.8934,58.942929 L 337.92024,58.942929 L 337.92024,76.00318 L 350.91853,76.00318 L 350.91853,89.976338 L 337.92024,89.976338 L 337.92024,108.98633 L 352.86827,108.98633 L 352.86827,124.90923 L 316.96051,124.90923 L 316.96051,43.020029 z"
     id="path3269"
     sodipodi:nodetypes="ccccccccccccc" />
  <path
     style="opacity:1;fill:#ffffff;fill-opacity:1;fill-rule:evenodd;stroke:none;stroke-width:0.64991432000000005;stroke-linecap:square;stroke-linejoin:miter;stroke-miterlimit:4;stroke-dasharray:none;stroke-dashoffset:0;stroke-opacity:1"
     d="M 360.31971,125.13685 C 360.31971,98.56389 360.31971,70.610631 360.31971,43.707998 C 371.6034,43.707998 380.30955,43.942389 387.01949,43.942389 C 400.40888,43.942389 407.11354,47.553525 407.11354,65.669685 C 407.11354,80.008733 405.24412,79.602223 396.065,82.2425 C 400.52608,82.742188 406.97138,86.810418 406.97138,91.016344 L 407.11354,125.13685 L 388.00753,125.13685 C 388.00753,113.64054 387.77859,101.35295 387.77859,90.041472 C 386.45736,88.660212 385.58933,88.091729 381.11697,88.091729 L 381.11697,125.13685 C 374.4742,125.13685 367.83299,125.13685 360.31971,125.13685 z M 388.02231,73.1437 C 388.02231,68.722318 388.06293,58.845585 388.06293,58.845585 C 386.98763,57.478758 385.7403,56.920322 383.71663,56.895842 L 381.11697,56.895842 L 381.11697,76.068314 L 383.06671,76.068314 C 385.22856,76.108215 386.93019,74.993522 388.02231,73.1437 z"
     id="path3271"
     sodipodi:nodetypes="ccsscccccccccsccccc" />
  <path
     style="opacity:1;fill:#ffffff;fill-opacity:1;fill-rule:evenodd;stroke:none;stroke-width:2;stroke-linecap:square;stroke-linejoin:miter;stroke-miterlimit:4;stroke-dasharray:none;stroke-dashoffset:0;stroke-opacity:1"
     d="M 81.15694,214.941 C 81.15694,188.03686 81.15694,159.94538 81.15694,133.65284 C 90.42161,133.65284 99.854536,133.653 109.10326,133.653 C 109.90617,141.7835 113.97253,166.52892 114.62753,171.02291 L 120.1518,133.653 L 147.12324,133.653 L 147.12324,214.941 L 128.559,214.941 C 128.559,196.86774 128.559,177.94667 128.559,160.044 L 121.12667,214.941 L 108.12838,214.941 C 106.54309,205.42039 102.29482,177.10803 99.91996,161.10225 C 99.91996,176.27375 100.00446,197.83478 100.00446,214.941 C 94.06917,214.941 87.196092,214.941 81.15694,214.941 z"
     id="path3273"
     sodipodi:nodetypes="cccccccccccccc" />
  <path
     style="opacity:1;fill:#ffffff;fill-opacity:1;fill-rule:evenodd;stroke:none;stroke-width:2;stroke-linecap:square;stroke-linejoin:miter;stroke-miterlimit:4;stroke-dasharray:none;stroke-dashoffset:0;stroke-opacity:1"
     d="M 156.26932,133.23168 L 176.94946,133.23168 L 176.94946,215.03315 L 156.26932,215.03315 L 156.26932,133.23168 z"
     id="path3275"
     sodipodi:nodetypes="ccccc" />
  <path
     style="opacity:1;fill:#ffffff;fill-opacity:1;fill-rule:evenodd;stroke:none;stroke-width:2;stroke-linecap:square;stroke-linejoin:miter;stroke-miterlimit:4;stroke-dasharray:none;stroke-dashoffset:0;stroke-opacity:1"
     d="M 186.02562,133.04318 L 222.09587,133.04318 L 222.09587,148.96608 L 207.14784,148.96608 L 207.14784,165.21394 L 220.14613,165.21394 L 220.14613,180.16197 L 207.14784,180.16197 L 207.14784,214.93239 L 186.02562,214.93239 L 186.02562,133.04318 z"
     id="path3277"
     sodipodi:nodetypes="ccccccccccc" />
  <path
     sodipodi:nodetypes="ccccccccccc"
     id="path3281"
     d="M 227.62014,133.04318 L 263.69039,133.04318 L 263.69039,148.96608 L 248.74236,148.96608 L 248.74236,165.21394 L 261.74065,165.21394 L 261.74065,180.16197 L 248.74236,180.16197 L 248.74236,214.93239 L 227.62014,214.93239 L 227.62014,133.04318 z"
     style="opacity:1;fill:#ffffff;fill-opacity:1;fill-rule:evenodd;stroke:none;stroke-width:2;stroke-linecap:square;stroke-linejoin:miter;stroke-miterlimit:4;stroke-dasharray:none;stroke-dashoffset:0;stroke-opacity:1" />
  <path
     style="opacity:1;fill:#ffffff;fill-opacity:1;fill-rule:evenodd;stroke:none;stroke-width:2;stroke-linecap:square;stroke-linejoin:miter;stroke-miterlimit:4;stroke-dasharray:none;stroke-dashoffset:0;stroke-opacity:1"
     d="M 269.2838,133.09804 L 290.08106,133.09804 L 290.08106,199.06435 L 303.07934,199.06435 L 303.07934,214.98725 L 269.2838,214.98725 L 269.2838,133.09804 z"
     id="path3285"
     sodipodi:nodetypes="ccccccc" />
  <path
     sodipodi:nodetypes="ccccc"
     id="path3287"
     d="M 308.51175,133.23168 L 329.19189,133.23168 L 329.19189,215.03315 L 308.51175,215.03315 L 308.51175,133.23168 z"
     style="opacity:1;fill:#ffffff;fill-opacity:1;fill-rule:evenodd;stroke:none;stroke-width:2;stroke-linecap:square;stroke-linejoin:miter;stroke-miterlimit:4;stroke-dasharray:none;stroke-dashoffset:0;stroke-opacity:1" />
  <path
     style="opacity:1;fill:#ffffff;fill-opacity:1;fill-rule:evenodd;stroke:none;stroke-width:2;stroke-linecap:square;stroke-linejoin:miter;stroke-miterlimit:4;stroke-dasharray:none;stroke-dashoffset:0;stroke-opacity:1"
     d="M 338.84553,132.56789 C 343.45447,132.56789 350.4571,132.56741 355.91289,132.56741 C 359.15309,143.67443 364.20385,157.94576 368.72053,169.77524 L 368.72053,132.56741 L 385.80894,132.56741 L 385.80894,214.61933 L 367.9363,214.61933 C 363.94812,202.58415 359.88374,190.57309 355.91253,177.57421 L 355.91253,214.61933 L 338.84553,214.61933 C 338.84553,187.28751 338.84553,159.87593 338.84553,132.56789 z"
     id="path3289"
     sodipodi:nodetypes="ccccccccccc" />
  <rect
     style="opacity:1;fill:#b6b4b5;fill-opacity:1;fill-rule:evenodd;stroke:none;stroke-width:2;stroke-linecap:square;stroke-linejoin:miter;stroke-miterlimit:4;stroke-dasharray:none;stroke-dashoffset:0;stroke-opacity:1"
     id="rect3293"
     width="34.998714"
     height="8.9781742"
     x="389.99396"
     y="133.00471" />
  <path
     style="fill:#b6b4b5;fill-rule:evenodd;stroke:none;stroke-width:1px;stroke-linecap:butt;stroke-linejoin:miter;stroke-opacity:1;fill-opacity:1;opacity:1"
     d="M 390.01465,146.00781 L 424.97702,146.00781 L 424.97702,153.97829 L 410.93175,158.09277 L 424.97702,158.03533 L 424.97702,167.00391 L 389.99311,167.00391 L 389.99311,158.04251 L 404.98621,154.02137 L 390.02183,153.99264 L 390.01465,146.00781 z"
     id="path3295"
     sodipodi:nodetypes="ccccccccccc" />
  <path
     style="fill:#b6b4b5;fill-rule:evenodd;stroke:none;stroke-width:1px;stroke-linecap:butt;stroke-linejoin:miter;stroke-opacity:1;fill-opacity:1"
     d="M 410.0147,191.99408 L 410.0147,183.03745 L 418.97133,183.03745 C 418.97133,183.03745 420.02744,183.07806 420.02744,181.04708 C 420.02744,179.0161 419.01195,178.99579 419.01195,178.99579 L 396.04154,178.99579 C 396.04154,178.99579 394.98543,179.05672 394.98543,181.02677 C 394.98543,182.99683 396.00092,183.03745 396.00092,183.03745 L 403.94206,183.03745 L 403.94206,191.98392 L 394.98543,191.98392 C 394.98543,191.98392 389.05496,191.95346 389.05496,181.39235 C 389.05496,170.83124 394.98543,170.01885 394.98543,170.01885 L 419.98682,170.01885 C 419.98682,170.01885 426.01884,169.85637 426.01884,181.02677 C 426.01884,192.19718 420.01221,191.99408 420.01221,191.99408 L 410.0147,191.99408 z"
     id="path3305" />
  <path
     style="fill:#ffffff;fill-rule:evenodd;stroke:none;stroke-width:1px;stroke-linecap:butt;stroke-linejoin:miter;stroke-opacity:1;fill-opacity:1;opacity:1"
     d="M 391.94911,199.01112 L 406.01366,199.01112 L 406.01366,211.99925 C 406.01366,216.66649 398.90209,226.01303 391.99989,226.01303 L 391.99989,220.06225 C 393.28465,220.06225 395.98061,216.22748 395.98061,214.9848 L 391.97958,214.9848 L 391.94911,199.01112 z"
     id="path3307"
     sodipodi:nodetypes="cccccccc" />
  <path
     style="opacity:1;fill:#ffffff;fill-opacity:1;fill-rule:evenodd;stroke:none;stroke-width:1;stroke-linecap:square;stroke-linejoin:miter;stroke-miterlimit:4;stroke-dasharray:none;stroke-dashoffset:0;stroke-opacity:1"
     d="M 110.4375 229.875 L 110 230.65625 C 107.35959 235.39096 103.92133 241.70309 101.09375 246.71875 L 100.65625 247.46875 L 101.53125 247.4375 L 104.4375 247.40625 L 104.71875 247.40625 L 104.875 247.15625 L 107 243.40625 L 114.28125 243.40625 L 116.34375 247.125 L 116.5 247.375 L 116.78125 247.375 L 119.65625 247.375 L 120.53125 247.375 L 120.09375 246.625 L 110.875 230.625 L 110.4375 229.875 z M 110.59375 236.09375 L 112.78125 240.46875 L 108.5 240.46875 C 109.21493 238.99635 109.91095 237.46089 110.59375 236.09375 z "
     id="path3326" />
  <path
     style="opacity:1;fill:#ffffff;fill-opacity:1;fill-rule:evenodd;stroke:none;stroke-width:1;stroke-linecap:square;stroke-linejoin:miter;stroke-miterlimit:4;stroke-dasharray:none;stroke-dashoffset:0;stroke-opacity:1"
     d="M 342.125 229.875 L 341.6875 230.65625 C 339.04709 235.39096 335.60884 241.7031 332.78125 246.71875 L 332.34375 247.46875 L 333.21875 247.4375 L 336.125 247.40625 L 336.40625 247.40625 L 336.5625 247.15625 L 338.65625 243.40625 L 345.9375 243.40625 L 348.03125 247.125 L 348.1875 247.375 L 348.46875 247.375 L 351.34375 247.375 L 352.21875 247.375 L 351.78125 246.625 L 342.5625 230.625 L 342.125 229.875 z M 342.28125 236.0625 L 344.46875 240.46875 L 340.1875 240.46875 C 340.90802 238.98466 341.59301 237.43557 342.28125 236.0625 z "
     id="path3324" />
  <path
     style="opacity:1;fill:#ffffff;fill-opacity:1;fill-rule:evenodd;stroke:none;stroke-width:1;stroke-linecap:square;stroke-linejoin:miter;stroke-miterlimit:4;stroke-dasharray:none;stroke-dashoffset:0;stroke-opacity:1"
     d="M 363.0625,230 L 363.0625,230.5 L 363.0625,246.53125 L 363.0625,247.03125 L 363.5625,247.03125 L 366.5,247.125 L 367.03125,247.125 L 367.03125,246.625 L 367.03125,236.71875 L 377.1875,246.90625 L 377.34375,247.03125 L 377.53125,247.03125 L 380.5625,247.03125 L 381.0625,247.03125 L 381.0625,246.53125 L 381.0625,230.5 L 381.0625,230 L 380.5625,230 L 377.53125,230 L 377.03125,230 L 377.03125,230.5 L 377.03125,240.375 L 366.875,230.15625 L 366.75,230 L 366.53125,230 L 363.5625,230 L 363.0625,230 z"
     id="path3322" />
  <path
     style="opacity:1;fill:#ffffff;fill-opacity:1;fill-rule:evenodd;stroke:none;stroke-width:1;stroke-linecap:square;stroke-linejoin:miter;stroke-miterlimit:4;stroke-dasharray:none;stroke-dashoffset:0;stroke-opacity:1"
     d="M 231,230.03125 C 229.36875,230.03125 227.06024,230.42866 225.09375,231.6875 C 223.12726,232.94634 221.53125,235.1398 221.53125,238.53125 C 221.53125,241.9032 223.04316,244.21162 224.96875,245.59375 C 226.89434,246.97588 229.20172,247.46875 230.9375,247.46875 C 234.28363,247.46875 236.25,246.375 236.25,246.375 L 236.5,246.21875 L 236.5,245.9375 L 236.5,243.5625 L 236.5,242.65625 L 235.71875,243.125 C 234.27885,244.01527 233.46435,244.59374 231.46875,244.59375 C 230.53855,244.59375 228.6695,244.09992 227.15625,243.0625 C 225.643,242.02508 224.46875,240.517 224.46875,238.46875 C 224.46875,236.39548 225.38723,235.09958 226.65625,234.25 C 227.92527,233.40042 229.55964,233.0625 230.75,233.0625 C 233.27146,233.0625 234.05283,233.36635 235.71875,234.40625 L 236.5,234.90625 L 236.5,234 L 236.5,232.03125 L 236.5,231.75 L 236.25,231.625 C 234.84503,230.79297 234.14063,230.03125 231,230.03125 z"
     id="path3320" />
  <path
     style="opacity:1;fill:#ffffff;fill-opacity:1;fill-rule:evenodd;stroke:none;stroke-width:1;stroke-linecap:square;stroke-linejoin:miter;stroke-miterlimit:4;stroke-dasharray:none;stroke-dashoffset:0;stroke-opacity:1"
     d="M 391.46875,230.03125 L 392,230.8125 L 397.90625,239.53125 C 397.90625,239.87432 397.90624,246.35589 397.90625,246.59375 L 397.90625,247.09375 L 398.40625,247.09375 L 401.5625,247.09375 L 402.0625,247.09375 L 402.0625,246.59375 L 402.0625,239.8125 L 408,230.8125 L 408.5,230.03125 L 407.5625,230.03125 L 404.5,230.03125 L 404.25,230.03125 L 404.09375,230.25 L 400.03125,235.6875 L 395.96875,230.25 L 395.8125,230.03125 L 395.5625,230.03125 L 392.4375,230.03125 L 391.46875,230.03125 z"
     id="path3318" />
  <path
     style="opacity:1;fill:#ffffff;fill-opacity:1;fill-rule:evenodd;stroke:none;stroke-width:1;stroke-linecap:square;stroke-linejoin:miter;stroke-miterlimit:4;stroke-dasharray:none;stroke-dashoffset:0;stroke-opacity:1"
     d="M 155.5,230.4375 L 155.5,230.9375 L 155.5,246.96875 L 155.5,247.46875 L 156,247.46875 L 166.09375,247.46875 L 166.59375,247.46875 L 166.59375,246.96875 L 166.59375,245.5 L 166.59375,245 L 166.09375,245 L 158.46875,245 L 158.46875,239.40625 L 165.0625,239.40625 L 165.5625,239.40625 L 165.5625,238.90625 L 165.5625,237.0625 L 165.5625,236.5625 L 165.0625,236.5625 L 158.46875,236.5625 L 158.46875,233 L 166.09375,233 L 166.59375,233 L 166.59375,232.5 L 166.59375,231.4375 L 166.59375,230.9375 L 166.59375,230.4375 L 166.09375,230.4375 L 156,230.4375 L 155.5,230.4375 z"
     id="path3316" />
  <path
     style="opacity:1;fill:#ffffff;fill-opacity:1;fill-rule:evenodd;stroke:none;stroke-width:1;stroke-linecap:square;stroke-linejoin:miter;stroke-miterlimit:4;stroke-dasharray:none;stroke-dashoffset:0;stroke-opacity:1"
     d="M 258.5 230.5 C 256.08111 230.5 253.60663 231.27641 251.71875 232.65625 C 249.83087 234.03609 248.53125 236.05838 248.53125 238.46875 C 248.53125 240.86588 249.81947 243.13596 251.6875 244.78125 C 253.55553 246.42654 256.00648 247.46875 258.4375 247.46875 C 260.88117 247.46875 263.3806 246.42269 265.28125 244.78125 C 267.1819 243.13981 268.5 240.88008 268.5 238.46875 C 268.5 236.07269 267.17879 234.07083 265.28125 232.6875 C 263.38371 231.30417 260.90651 230.5 258.5 230.5 z M 258.46875 233.0625 C 260.06232 233.0625 261.84658 233.66529 263.1875 234.65625 C 264.52842 235.64721 265.40625 236.97606 265.40625 238.46875 C 265.40625 239.94706 264.49605 241.47592 263.15625 242.625 C 261.81645 243.77408 260.08496 244.53125 258.53125 244.53125 C 256.98995 244.53125 255.16227 243.80228 253.78125 242.65625 C 252.40023 241.51022 251.46875 239.96012 251.46875 238.4375 C 251.46875 236.92509 252.36833 235.60436 253.71875 234.625 C 255.06917 233.64564 256.8566 233.0625 258.46875 233.0625 z "
     id="path3314" />
  <path
     style="opacity:1;fill:#ffffff;fill-opacity:1;fill-rule:evenodd;stroke:none;stroke-width:1;stroke-linecap:square;stroke-linejoin:miter;stroke-miterlimit:4;stroke-dasharray:none;stroke-dashoffset:0;stroke-opacity:1"
     d="M 81.5 230.59375 L 81.5 231.09375 L 81.5 245.875 L 81.5 246.375 L 82 246.375 L 83.9375 246.375 L 84.4375 246.375 L 84.4375 245.875 L 84.4375 240.53125 L 88 240.53125 C 88.01854 240.53172 88.021498 240.53158 88.03125 240.53125 C 88.050755 240.5306 88.074297 240.5016 88.09375 240.5 C 88.132655 240.4968 88.191622 240.50841 88.25 240.5 C 88.366756 240.48319 88.500289 240.45653 88.6875 240.40625 C 89.061922 240.30569 89.564228 240.12081 90.0625 239.78125 C 91.059045 239.10213 92.031252 237.7593 92.03125 235.46875 C 92.03125 233.20457 91.357177 231.94142 90.59375 231.28125 C 90.212036 230.95117 89.824466 230.77711 89.53125 230.6875 C 89.384642 230.6427 89.246752 230.60698 89.15625 230.59375 C 89.110999 230.58713 89.089764 230.59602 89.0625 230.59375 C 89.0625 230.59375 89.023516 230.84303 89 231.09375 C 88.998595 231.09368 88.968353 231.09375 88.96875 231.09375 L 88.96875 230.59375 L 88.9375 230.59375 L 82 230.59375 L 81.5 230.59375 z M 84.5 233.53125 L 86.8125 233.53125 L 86.875 233.53125 C 86.892623 233.53312 86.918701 233.52943 86.9375 233.53125 C 87.012697 233.53852 87.106321 233.57781 87.21875 233.59375 C 87.443609 233.62563 87.723737 233.66214 88 233.78125 C 88.552526 234.01947 89.062499 234.39532 89.0625 235.46875 C 89.0625 236.52648 88.48016 236.96147 87.8125 237.25 C 87.47867 237.39426 87.135458 237.48916 86.875 237.53125 C 86.744771 237.55229 86.636369 237.5561 86.5625 237.5625 C 86.525565 237.5657 86.488086 237.56132 86.46875 237.5625 L 86.4375 237.5625 C 86.4375 237.5625 86.42125 237.56036 86.40625 237.5625 L 84.5 237.5625 L 84.5 233.53125 z "
     id="path3312" />
  <path
     style="opacity:1;fill:#ffffff;fill-opacity:1;fill-rule:evenodd;stroke:none;stroke-width:1;stroke-linecap:square;stroke-linejoin:miter;stroke-miterlimit:4;stroke-dasharray:none;stroke-dashoffset:0;stroke-opacity:1"
     d="M 131.46875 230.59375 L 131.46875 231.09375 L 131.46875 245.875 L 131.46875 246.375 L 131.96875 246.375 L 133.90625 246.375 L 134.40625 246.375 L 134.40625 245.875 L 134.40625 240.53125 L 137.96875 240.53125 C 137.98729 240.53172 137.99025 240.53158 138 240.53125 C 138.0195 240.5306 138.04305 240.5016 138.0625 240.5 C 138.1014 240.4968 138.16037 240.50841 138.21875 240.5 C 138.33551 240.48319 138.50029 240.45653 138.6875 240.40625 C 139.06192 240.30569 139.53298 240.12081 140.03125 239.78125 C 141.02779 239.10213 142.03125 237.7593 142.03125 235.46875 C 142.03125 233.20457 141.32592 231.94142 140.5625 231.28125 C 140.18079 230.95117 139.79321 230.77711 139.5 230.6875 C 139.35339 230.6427 139.2155 230.60698 139.125 230.59375 C 139.07975 230.58713 139.05851 230.59602 139.03125 230.59375 C 139.03125 230.59375 139.01564 230.84375 139 231.09375 C 138.99833 231.09367 138.96832 231.09375 138.96875 231.09375 L 138.96875 230.59375 L 138.9375 230.59375 L 131.96875 230.59375 L 131.46875 230.59375 z M 134.46875 233.53125 L 136.8125 233.53125 L 136.84375 233.53125 C 136.86816 233.53414 136.88118 233.52883 136.90625 233.53125 C 136.98145 233.53852 137.07507 233.57781 137.1875 233.59375 C 137.41236 233.62563 137.72374 233.66214 138 233.78125 C 138.55252 234.01947 139.03125 234.39532 139.03125 235.46875 C 139.03125 236.52648 138.44891 236.96147 137.78125 237.25 C 137.44742 237.39426 137.10421 237.48916 136.84375 237.53125 C 136.71352 237.55229 136.60512 237.5561 136.53125 237.5625 C 136.49432 237.5657 136.45684 237.56132 136.4375 237.5625 C 136.4375 237.5625 136.40291 237.55851 136.375 237.5625 L 134.46875 237.5625 L 134.46875 233.53125 z "
     id="path3310" />
  <path
     style="opacity:1;fill:#ffffff;fill-opacity:1;fill-rule:evenodd;stroke:none;stroke-width:1;stroke-linecap:square;stroke-linejoin:miter;stroke-miterlimit:4;stroke-dasharray:none;stroke-dashoffset:0;stroke-opacity:1"
     d="M 179.5 230.59375 L 179.5 231.09375 L 179.5 245.875 L 179.5 246.375 L 180 246.375 L 181.9375 246.375 L 182.4375 246.375 L 182.4375 245.875 L 182.4375 240.53125 L 183.75 240.5 L 187.75 246.1875 L 187.875 246.40625 L 188.15625 246.40625 L 190.90625 246.375 L 191.96875 246.375 L 191.3125 245.5625 L 186.90625 240.3125 C 187.25078 240.20412 187.64272 240.06732 188.0625 239.78125 C 189.05904 239.10213 190.03125 237.7593 190.03125 235.46875 C 190.03125 233.20457 189.35717 231.94142 188.59375 231.28125 C 188.21204 230.95117 187.82446 230.77711 187.53125 230.6875 C 187.38464 230.6427 187.24675 230.60698 187.15625 230.59375 C 187.111 230.58713 187.08976 230.59602 187.0625 230.59375 C 187.0625 230.59375 187.02352 230.84303 187 231.09375 C 186.9986 231.09368 186.96835 231.09375 186.96875 231.09375 L 186.96875 230.59375 L 186.9375 230.59375 L 180 230.59375 L 179.5 230.59375 z M 182.5 233.53125 L 184.8125 233.53125 L 184.875 233.53125 C 184.89262 233.53312 184.9187 233.52943 184.9375 233.53125 C 185.0127 233.53852 185.10632 233.57781 185.21875 233.59375 C 185.44361 233.62563 185.72374 233.66214 186 233.78125 C 186.55252 234.01947 187.0625 234.39532 187.0625 235.46875 C 187.0625 236.52648 186.48016 236.96147 185.8125 237.25 C 185.47867 237.39426 185.13546 237.48916 184.875 237.53125 C 184.74477 237.55229 184.63637 237.5561 184.5625 237.5625 C 184.52557 237.5657 184.48809 237.56132 184.46875 237.5625 C 184.46875 237.5625 184.43418 237.55851 184.40625 237.5625 L 182.5 237.5625 L 182.5 233.53125 z "
     id="path3308" />
  <path
     style="opacity:1;fill:#ffffff;fill-opacity:1;fill-rule:evenodd;stroke:none;stroke-width:1;stroke-linecap:square;stroke-linejoin:miter;stroke-miterlimit:4;stroke-dasharray:none;stroke-dashoffset:0;stroke-opacity:1"
     d="M 312.46875 230.59375 L 312.46875 231.09375 L 312.46875 245.875 L 312.46875 246.375 L 312.96875 246.375 L 314.9375 246.375 L 315.4375 246.375 L 315.4375 245.875 L 315.4375 240.53125 L 318.96875 240.53125 L 319 240.53125 C 319.00593 240.53118 319.02637 240.53141 319.03125 240.53125 C 319.05075 240.5306 319.04305 240.5016 319.0625 240.5 C 319.1014 240.4968 319.16037 240.50841 319.21875 240.5 C 319.33551 240.48319 319.50029 240.45653 319.6875 240.40625 C 320.06192 240.30569 320.56423 240.12081 321.0625 239.78125 C 322.05904 239.10213 323.03125 237.7593 323.03125 235.46875 C 323.03125 233.20457 322.32592 231.94142 321.5625 231.28125 C 321.18079 230.95117 320.79321 230.77711 320.5 230.6875 C 320.35339 230.6427 320.24675 230.60698 320.15625 230.59375 C 320.111 230.58713 320.05851 230.59602 320.03125 230.59375 C 320.03125 230.59375 320.01563 230.84375 320 231.09375 C 319.99833 231.09367 319.96832 231.09375 319.96875 231.09375 L 319.96875 230.59375 L 319.9375 230.59375 L 312.96875 230.59375 L 312.46875 230.59375 z M 315.5 233.53125 L 317.8125 233.53125 L 317.84375 233.53125 C 317.87203 233.5348 317.9093 233.52852 317.9375 233.53125 C 318.0127 233.53852 318.10632 233.57781 318.21875 233.59375 C 318.44361 233.62563 318.72374 233.66214 319 233.78125 C 319.55252 234.01947 320.03125 234.39532 320.03125 235.46875 C 320.03125 236.52648 319.44891 236.96147 318.78125 237.25 C 318.44742 237.39426 318.10421 237.48916 317.84375 237.53125 C 317.71352 237.55229 317.60512 237.5561 317.53125 237.5625 C 317.49432 237.5657 317.45684 237.56132 317.4375 237.5625 C 317.4375 237.5625 317.40291 237.55851 317.375 237.5625 L 315.5 237.5625 L 315.5 233.53125 z "
     id="path3306" />
  <path
     style="opacity:1;fill:#ffffff;fill-opacity:1;fill-rule:evenodd;stroke:none;stroke-width:1;stroke-linecap:square;stroke-linejoin:miter;stroke-miterlimit:4;stroke-dasharray:none;stroke-dashoffset:0;stroke-opacity:1"
     d="M 297.3125,231.46875 L 297.1875,231.6875 L 291.5,239.59375 L 285.8125,231.71875 L 285.65625,231.5 L 285.40625,231.5 L 282.53125,231.5 L 282.03125,231.5 L 282.03125,232 L 282.03125,246.53125 L 282.03125,247.03125 L 282.53125,247.03125 L 284.5,247.03125 L 285.03125,247.0625 L 285.03125,246.53125 L 285.03125,236.0625 L 291.09375,243.90625 L 291.46875,244.40625 L 291.875,243.90625 L 297.9375,236.03125 L 297.9375,246.625 L 297.9375,247.125 L 298.4375,247.125 L 300.53125,247.125 L 301.03125,247.125 L 301.03125,246.625 L 301.03125,231.96875 L 301.03125,231.46875 L 300.53125,231.46875 L 297.59375,231.46875 L 297.3125,231.46875 z"
     id="path3304" />
</svg>
