<?xml version="1.0" encoding="utf-8"?>
<!-- Generator: Adobe Illustrator 25.0.1, SVG Export Plug-In . SVG Version: 6.00 Build 0)  -->
<svg version="1.1" id="Layer_1" xmlns="http://www.w3.org/2000/svg" xmlns:xlink="http://www.w3.org/1999/xlink" x="0px" y="0px"
	 viewBox="0 0 841.7 280.3" style="enable-background:new 0 0 841.7 280.3;" xml:space="preserve">
<style type="text/css">
	.st0{fill:#FFFFFF;}
	.st1{fill:#A6CEE3;}
	.st2{font-family:'Helvetica-Bold';}
	.st3{font-size:24px;}
	.st4{letter-spacing:1;}
</style>
<path class="st0" d="M698.1,0L698.1,0h-229H37.7C16.5,0,0.3,14.9,0.2,34.9C0,165.9-0.1,297,0.1,428.1c0,7.7,3.6,16.2,7.9,22.8
	c7.9,11.9,20.8,13.9,34.5,13.9c193.6-0.3,387.2-0.4,580.8-0.4c243.6,0,487.2,0.2,730.9,0.7c24.3,0,42.7-16,42.5-42.5
	c-0.9-128.3-0.7-256.6-0.9-385c0.1-3.6-0.3-7.2-1.1-10.6C1390.1,9.6,1376.5,0,1356.8,0L698.1,0z"/>
<path class="st1" d="M698.3,0l-0.1,0h658.8c19.6,0,33.2,9.7,37.9,26.9c0.8,3.5,1.2,7.1,1.1,10.6c0.2,128.3,0,256.6,0.9,385
	c0.2,26.6-18.3,42.6-42.5,42.5c-243.6-0.6-487.2-0.9-730.9-0.7c-193.6,0-387.2,0.1-580.8,0.4c-13.7,0-26.6-2-34.5-13.9
	c-4.4-6.5-7.9-15.1-7.9-22.8C-0.1,297.1-0.1,166,0.3,34.9C0.3,14.9,16.6,0,37.8,0h431.4 M1059.9,19v-0.2H769.6
	c-22.4,0-35.7,13.3-35.7,35.5v354.2c0,23.5,12.9,36.5,36.3,36.5l418-0.1c53.6,0,107.3,0,161,0c20.6,0,33.7-13.2,33.7-33.7
	c0-120-0.1-240-0.2-359.9c-0.3-7.1-2.6-14-6.6-19.8c-6.8-10.4-18.1-12.4-30-12.4C1250.6,19.1,1155.2,19.1,1059.9,19L1059.9,19z
	 M126.1,368.7c39.5,0,65.3-26.7,65.4-67.6c0-41.5-25.7-69.3-63.9-69.3c-39.4,0-65.3,27.1-65.4,68.7C62,341,88,368.7,126.1,368.7z
	 M502.9,325.6c2.4-0.1,4-0.3,5.7-0.3c18.5,0,37,0,55.5,0c3.7,0,7.3,0.3,7.3-5.2c-0.3-31-20.2-58.8-59.2-50.2
	c-26.3,5.8-41,32.1-35.3,60.6c5.1,25.6,27.3,41.3,53.9,37.9c20.9-2.6,34.5-13.9,37.9-32c-10,0.8-20-3-28.8,6.9
	c-6.5,7.3-16.8,6.5-25.6,2.7C505.8,342.6,503.3,335,502.9,325.6z M465.3,304.5c0.2-8.9-3.4-17.5-9.8-23.6
	c-18.5-18.8-57.6-16-73.3,5.2c-12.6,17-13.7,44.3-2.4,61.8c10.9,16.9,32.6,24.4,55,19c18-4.3,32-21.7,29.7-37.7
	c-4.8,0-9.8,0.3-14.7-0.1c-5.8-0.4-9.7,0.5-11.5,7.3c-2.1,7.6-8.3,11.5-16.2,11.9c-8.5,0.5-15.3-2.6-19.1-10.4
	c-5.5-11-5.6-22.5-1.9-33.9c2.8-8.6,8.3-15.2,18.3-15.6c9.5-0.4,16.7,2.9,19.6,12.9c0.9,1.6,2.4,2.7,4.2,2.9
	C450.4,304.6,457.5,304.5,465.3,304.5L465.3,304.5z M320.9,270.6H303c1-4.9,0.5-10.8,2.8-12.2c4.7-3,10.9-3.6,16.8-5.2v-16.9
	c-28.8-6.8-42,3-46.2,34.3l-14.6,0.7v17.1l15.7,1.1v75.7h26.7v-75.6C323.3,287.4,323.3,287.4,320.9,270.6L320.9,270.6z M238.2,365.4
	v-75.8c6.2-0.8,13.6,0.4,16.3-2.7c2.8-3,0.6-10.2,0.6-16.3H237c1-4.9,0.6-10.8,2.9-12.3c4.7-3,10.9-3.6,16.9-5.2v-17.7
	c-11.5-0.7-22.5-2.2-32.7,3.7c-12.2,7-12.8,19.5-13.5,30c-5.1,4.9-14.9-4.1-15.2,8.1c-0.2,10.1-0.3,10.1,15.7,12.5v75.7H238.2z
	 M197.6,192.4c0-17.1,0.3-33.4-0.1-49.6c-0.3-9.3-3.7-17.6-13.4-20.9c-10.2-3.5-20.1-3-28.8,4.6c-1.5,1.1-3.1,2.2-4.7,3.1V95.2h-19
	v97.2H151c0-3.3,0-6.3,0-9.3c0.1-11.1,0-22.1,0.4-33.2c0.4-9.5,6.1-15,14.3-14.8c7.8,0.2,11.9,5,12.2,14.7
	c0.2,5.5,0.1,11.1,0.1,16.6c0,8.5,0,17,0,25.9L197.6,192.4z M278.1,170.9c-8.1,0-15.3-2-21.9,5.1c-5,5.5-12.8,4.9-19.4,1.5
	c-5.5-2.8-8.1-7.9-7.2-15.3h8.3c11.9,0,23.8,0.3,35.6-0.2c2.3-0.1,6.5-3.1,6.4-4.6c-0.3-20.3-12-37.4-34.3-37.7
	c-23.8-0.3-39.8,19.5-36.3,44.9c2.1,16.2,15.4,28.7,31.8,29.7C260.3,196,273.1,188.1,278.1,170.9z M121.9,95.4H42.1v17.7h29.3v79.7
	c4.2-0.2,8.4-0.2,12.5,0.1c7.5,1,9.3-2,9.2-9.3c-0.5-20.7-0.2-41.5-0.2-62.2c0-2.6,0.3-5.2,0.4-8.5h28.5V95.4z M356.7,365.4v-93.9
	h-25.4v93.9H356.7z M356.9,235.3h-25.9V256h25.9L356.9,235.3z"/>
<path class="st0" d="M1059.9,19c95.4,0,190.8,0,286.1,0c11.9,0,23.2,2,30,12.4c4,5.9,6.3,12.7,6.6,19.8c0.4,120,0.5,240,0.2,359.9
	c0,20.5-13.1,33.6-33.7,33.7c-53.6,0.1-107.3,0.1-161,0l-417.9,0.1c-23.4,0-36.3-13-36.3-36.5V54.2c0-22.2,13.4-35.5,35.7-35.5
	h290.2V19z M1058.7,440v0.2h287.8c22.3,0,32.2-10.1,32.2-32.6c0-117.3,0-234.5,0-351.7c0-22.3-10-32.3-32.4-32.3l-186.7,0.1
	c-130.2,0-260.5,0-390.7,0.1c-19.1,0-30,10.5-30,28.7c0,118.9,0,237.8,0,356.8c0,20.8,10.2,30.8,31.2,30.8L1058.7,440z"/>
<path class="st0" d="M76,222.2c-23,0-38.6-16.7-38.5-41.1c0.1-25.1,15.7-41.4,39.4-41.4c23,0,38.5,16.8,38.5,41.8
	C115.4,206.1,99.8,222.2,76,222.2z M54.7,181.2c0.5,3.4,0.8,7,1.6,10.3c2.5,10.1,9.7,15.9,19.6,16.2s17.3-5.2,20.3-15.2
	c2.5-8,2.3-16.6-0.6-24.5c-5.1-13.6-21.3-18.3-32.2-9C56.6,164.6,55,172.7,54.7,181.2L54.7,181.2z"/>
<path class="st0" d="M303.1,196.2c0.2,5.7,1.7,10.2,6.8,12.4c5.3,2.3,11.5,2.8,15.5-1.6c5.3-6,11.3-3.7,17.3-4.2
	c-2,10.9-10.2,17.7-22.8,19.3c-16,2-29.4-7.4-32.5-22.9c-3.4-17.2,5.4-33,21.3-36.5c23.5-5.2,35.5,11.5,35.7,30.3
	c0,3.4-2.2,3.2-4.4,3.1c-11.2,0-22.3,0-33.5,0C305.5,196,304.5,196.1,303.1,196.2z M327.6,185.2c-1.7-8.5-5.7-11.8-13.2-11.3
	c-6.5,0.5-10.5,4.6-10.9,11.3H327.6z"/>
<path class="st0" d="M280.4,183.5c-4.7,0-9,0.1-13.3-0.1c-1.1-0.1-2-0.8-2.5-1.8c-1.8-6-6.1-8-11.8-7.8c-6,0.2-9.4,4.2-11,9.4
	c-2.2,6.8-2.2,13.8,1.2,20.4c2.3,4.7,6.4,6.5,11.5,6.2c4.8-0.3,8.5-2.6,9.8-7.2c1.1-4.1,3.4-4.7,6.9-4.4c3,0.2,5.9,0,8.8,0
	c1.4,9.6-7.1,20.1-17.9,22.7c-13.5,3.2-26.6-1.3-33.2-11.5c-6.8-10.5-6.2-27,1.4-37.2c9.5-12.8,33-14.5,44.2-3.1
	C278.4,173,280.5,178.1,280.4,183.5z"/>
<path class="st0" d="M193.4,163.1c1.4,10.1,1.4,10.1-10.1,11.4V220h-16.1v-45.6l-9.4-0.7v-10.3l8.8-0.4
	c2.5-18.9,10.4-24.7,27.8-20.7v10.2c-3.6,1-7.3,1.4-10.1,3.1c-1.4,0.9-1.1,4.4-1.7,7.4L193.4,163.1z"/>
<path class="st0" d="M143.5,220.2h-16.3v-45.6c-9.6-1.5-9.6-1.5-9.5-7.5c0.1-7.4,6.1-1.9,9.1-4.9c0.4-6.3,0.7-13.8,8.1-18.1
	c6.2-3.6,12.8-2.6,19.7-2.2v10.7c-3.6,1-7.4,1.4-10.2,3.2c-1.4,0.9-1.1,4.5-1.8,7.4h10.9c0,3.7,1.3,8.1-0.4,9.8s-6.1,1.1-9.9,1.6
	V220.2z"/>
<path class="st0" d="M119.1,115.9h-11.8c0-5.4,0-10.5,0-15.6c0-3.3,0-6.7-0.1-10c-0.2-5.9-2.7-8.7-7.4-8.8c-5-0.1-8.4,3.2-8.6,8.9
	c-0.3,6.6-0.2,13.3-0.2,20c0,1.8,0,3.6,0,5.6H79.3V57.4h11.5V78c1-0.6,1.9-1.2,2.9-1.9c5.2-4.6,11.2-4.9,17.3-2.8
	c5.9,2,7.9,7,8.1,12.6C119.3,95.8,119.1,105.6,119.1,115.9z"/>
<path class="st0" d="M167.6,103c-3,10.4-10.7,15.1-22.2,14.2c-9.9-0.6-17.9-8.1-19.2-17.9c-2.1-15.3,7.5-27.3,21.9-27.1
	c13.5,0.2,20.5,10.5,20.7,22.7c0,1-2.5,2.7-3.9,2.8c-7.1,0.3-14.3,0.1-21.5,0.1h-5c-0.5,4.5,1,7.5,4.3,9.2c4,2,8.7,2.4,11.7-0.9
	C158.3,101.8,162.7,103,167.6,103z M156.2,90c-1.2-6.8-3.8-9-9.6-8.7c-5,0.3-7.8,3.2-8,8.7H156.2z"/>
<path class="st0" d="M73.4,57.5v10.6H56.2c-0.1,2-0.3,3.5-0.3,5.1c0,12.5-0.2,25,0.1,37.5c0.1,4.4-1,6.2-5.5,5.6
	c-2.5-0.2-5-0.2-7.6-0.1v-48H25.4V57.5H73.4z"/>
<path class="st0" d="M215,220.2h-15.3v-56.6H215V220.2z"/>
<path class="st0" d="M215.1,141.8v12.5h-15.6v-12.5H215.1z"/>
<path class="st1" d="M1058.7,440H770c-20.9,0-31.2-10-31.2-30.8c0-118.9,0-237.8,0-356.7c0-18.3,11-28.7,30-28.7
	c130.2-0.1,260.5-0.1,390.7-0.1l186.7-0.1c22.5,0,32.4,10,32.4,32.3c0,117.3,0,234.5,0,351.8c0,22.5-10,32.5-32.2,32.6h-287.7V440z
	 M850.8,251.2c-5.9,0-11.4,0-16.9,0c-10.7,0-10.8,0-10.8,10.4c0,23,0,45.9,0,68.8c0,14.8,0,14.8,14.8,14.8h55.5
	c0,12.2-1,23.5,0.4,34.6c0.7,5.1,5.2,11.6,9.7,13.7c4.2,2,11.2,0.1,16-2.1c6.4-3,7.2-9.8,7.2-16.5c-0.1-38.4,0-76.9,0-115.3
	c0-2.5-0.5-5.2,0.4-7.4c0.8-1.9,3.1-3.1,4.8-4.6c1.4,1.5,3.3,2.8,3.9,4.6c0.5,2.2,0.6,4.4,0.3,6.6v86.3c0,11.3-0.2,22.7,0.2,34
	c0.4,10.5,8,17,18,16.1c9.5-0.8,14.8-7.7,14.8-19.4c0-69.7,0-139.4,0-209.1c0-3,0.6-6.1,0.8-9.1l2.8-0.2c0.7,2.8,1.1,5.6,1.4,8.4
	c0.1,25.2,0,50.3,0.1,75.5c0,8.2,4.6,13,11.8,13.3c7.4,0.3,12.5-4.1,12.5-12.3c0.2-34,0.6-68-0.2-102c-0.5-20.1-13.7-31.8-33.8-32.1
	c-20.4-0.3-40.9-0.2-61.4-0.3c-26-0.1-38.5,12.5-38.6,38.7s0,52,0,78v8.7C852.4,235,852.4,235,850.8,251.2z M1217.1,325.1v-0.4
	c5.5,0,11.1,0.1,16.6,0c5.8-0.1,11.7,0.2,17.3-0.9c4.6-1,10-2.8,12.9-6.1c6.9-7.2,8.8-17.9,4.8-27c-3.3-8.3-14.1-14.3-24.2-12.4
	c-27.7,5.1-55.2,11-82.7,16.8c-10.5,2.2-16.3,9.4-18.9,19.7c-3.3,13.1-7.4,26-10.9,39c-4,14.9-7.9,29.9-11.4,44.8
	c-1.9,8.3,1.7,15,8.5,17.7c6.8,2.7,14,0.3,18.1-7.3c2.7-5.1,4.9-10.5,6.5-16c6.1-19.2,12-38.4,17.9-57.7c2.1-6.9,6.3-10.6,13.9-10.4
	C1196.1,325.3,1206.6,325.1,1217.1,325.1z M1179.1,330.8v88.3h12.7v-70h88.1v69.8h11.5v-9v-213c0-1.4,0-2.8,0-4.1
	c0.3-4.5-2-5.5-6.1-5.6c-6.6-0.2-5.8,4.3-5.8,8.4c0,41.7,0,83.4,0,125.2c0,3.2,0,6.3,0,10L1179.1,330.8z M1150.8,277.7v0.4
	c13.4-1.5,26.9-2.8,40.3-4.5c9.4-1,18.1-5.7,24.1-13c9.2-11,19.2-21.3,28.6-32.2c5.7-6.6,11.1-13.7,16.3-20.8
	c4.6-6.3,4.7-13-0.9-18.9s-12.4-7.5-19.6-4.3c-3.8,1.6-7.1,4.2-9.7,7.4c-11.8,14.9-23,30.4-34.8,45.2c-2.9,3.5-6.8,6-11.2,7.3
	c-15.4,4.2-31,7.6-46.6,11.4c-5.9,1.4-10.6,4.8-10,11.3c0.7,6.9,5.4,10.6,12.6,10.6C1143.6,277.6,1147.2,277.6,1150.8,277.7
	L1150.8,277.7z M1224.6,275.8c19.1-3.6,39.1-8.3,51,15.3c0.6-19.1,0.6-37,0.6-54.9c0-14.6,0.4-29.3-0.1-43.9
	c-0.6-16-13.3-26.2-29.9-24.8c-17.8,1.7-25.6,10.1-23.7,27.3c2.8-3,5.1-5.6,7.5-8c8.9-8.9,21-9.8,29.9-2.2c8.8,7.6,9.7,17,1.2,27.8
	c-9.7,12.7-20.1,24.9-31.1,36.5C1222.2,256.9,1221.1,265.1,1224.6,275.8L1224.6,275.8z M1084.2,419.4v-8.1
	c0-37.1,0.2-74.1-0.2-111.2c0-7.5,2.1-9.3,9.3-9.2c21.6,0.4,43.1,0.2,64.7,0c2.2,0,4.4-2.7,6.6-4.1c-2-1.3-4-3.7-6.1-3.8
	c-43.1-0.3-86.3-0.3-129.4-0.1c-2,0-4,2.4-6,3.7c2,1.5,4,4.2,6.1,4.3c10.2,0.4,20.5,0.6,30.7,0c6.6-0.4,8.5,1.8,8.4,8.3
	c-0.3,36.8-0.1,73.5-0.1,110.3c0,3.2,0.4,6.3,0.6,9.7L1084.2,419.4z M961.4,72.6c0.1-16.6-13.3-30.7-29.2-30.8
	c-15.9-0.1-30.4,14.1-30.5,29.9c-0.1,15.8,13.9,30.1,30,30.1C947.7,101.5,960.8,88.7,961.4,72.6L961.4,72.6z M1262.6,132.1
	c-0.7-4.2-1.8-8.2-3.3-12.2c-8.7-19.9-31.4-24-43.7-8.2c-9.1,11.7-7.1,30.6,4.6,41.4c7.9,7.3,16.9,10.8,27.2,5.8
	C1257.7,154,1262.3,145.6,1262.6,132.1L1262.6,132.1z"/>
<path class="st1" d="M54.7,181.1c0.3-8.5,1.9-16.6,8.6-22.3c10.9-9.3,27.1-4.6,32.2,9c2.9,7.9,3.2,16.5,0.6,24.5
	c-3,10-10.4,15.5-20.3,15.2s-17.1-6.1-19.6-16.2C55.5,188.1,55.3,184.6,54.7,181.1z"/>
<path class="st1" d="M327.6,185.1h-24.1c0.4-6.7,4.4-10.8,10.9-11.3C322,173.3,326,176.6,327.6,185.1z"/>
<path class="st1" d="M156.2,90h-17.6c0.2-5.5,3-8.4,8-8.7C152.4,80.9,155,83.1,156.2,90z"/>
<path class="st0" d="M850.8,251.2c1.7-16.2,1.7-16.2,13.9-17.8v-8.7c0-26,0-52,0-78c0-26.2,12.5-38.8,38.6-38.7
	c20.4,0,40.9,0,61.4,0.3c20.1,0.3,33.2,12,33.8,32.1c0.9,34,0.4,68,0.2,102c0,8.3-5.1,12.5-12.5,12.3c-7.2-0.3-11.7-5-11.8-13.3
	c-0.1-25.2,0-50.3-0.1-75.5c-0.2-2.8-0.7-5.7-1.4-8.4l-2.8,0.2c-0.3,3-0.8,6-0.8,9.1c0,69.7,0,139.4,0,209.1
	c0,11.6-5.4,18.6-14.8,19.4c-10,0.8-17.6-5.7-18-16.1c-0.4-11.3-0.2-22.7-0.2-34v-86.3c0.3-2.2,0.2-4.5-0.3-6.6
	c-0.6-1.8-2.6-3.1-3.9-4.6c-1.7,1.5-4,2.7-4.8,4.6c-0.9,2.2-0.4,4.9-0.4,7.4c0,38.4,0,76.9,0,115.3c0,6.6-0.8,13.5-7.2,16.5
	c-4.8,2.2-11.9,4.1-16,2.1c-4.5-2.1-9-8.6-9.7-13.7c-1.4-11.1-0.4-22.5-0.4-34.6h-55.5c-14.8,0-14.8,0-14.8-14.8c0-23,0-45.9,0-68.8
	c0-10.3,0.1-10.4,10.8-10.4C839.4,251.2,844.9,251.2,850.8,251.2z M893.4,157.7l-3.3-0.2c-0.7,2.6-1.1,5.2-1.3,7.9
	c-0.1,26.2,0,52.5,0.1,78.7c0,2.4,1.4,4.7,2.2,7c1.1-2.3,3.1-4.7,3.1-7.1c0.2-26.2,0.1-52.5,0-78.7
	C894,162.8,893.8,160.2,893.4,157.7z M883.3,250.8c1.8-12.1,1.7-12.2-8.9-12.1c-2.8,0-5.5,0-8.3,0c-11.2,0.1-11.5,0.5-9.4,12.1
	L883.3,250.8z"/>
<path class="st0" d="M1217.1,325.1c-10.5,0-21,0.2-31.5,0c-7.6-0.2-11.8,3.4-13.9,10.4c-5.9,19.3-11.8,38.5-17.9,57.7
	c-1.7,5.5-3.9,10.9-6.5,16c-4.1,7.6-11.1,10-18.1,7.3c-7-2.8-10.4-9.4-8.5-17.7c3.5-15,7.4-29.9,11.4-44.8c3.5-13,7.5-26,10.9-39
	c2.6-10.3,8.3-17.5,18.9-19.7c27.5-5.8,55.1-11.6,82.7-16.8c10.1-1.9,20.9,4.1,24.2,12.4c3.9,9.2,2,19.8-4.9,27
	c-3,3.3-8.3,5.1-12.9,6.1c-5.6,1.1-11.6,0.8-17.3,0.9c-5.5,0.1-11,0-16.6,0L1217.1,325.1z"/>
<path class="st0" d="M1179.1,330.8h100.4c0-3.7,0-6.8,0-10c0-41.7,0-83.5,0-125.2c0-4.1-0.9-8.6,5.8-8.4c4.1,0.1,6.4,1.1,6.1,5.6
	c0,1.4,0,2.8,0,4.1v213v9h-11.5v-69.9h-88.1v70h-12.7L1179.1,330.8z"/>
<path class="st0" d="M1150.8,277.6c-3.6,0-7.2,0-10.8,0c-7.1,0-11.8-3.7-12.6-10.6c-0.7-6.5,3.9-10,10-11.3
	c15.5-3.8,31.2-7.2,46.6-11.4c4.4-1.3,8.2-3.8,11.2-7.3c11.9-14.8,23.1-30.3,34.8-45.2c2.6-3.2,5.9-5.7,9.7-7.4
	c7.3-3.2,14.2-1.4,19.6,4.3c5.4,5.8,5.5,12.6,0.9,18.9c-5.2,7.1-10.6,14.1-16.3,20.8c-9.4,10.9-19.4,21.2-28.6,32.2
	c-6,7.3-14.7,12-24.1,13c-13.4,1.7-26.9,3-40.3,4.5L1150.8,277.6z"/>
<path class="st0" d="M1224.6,275.7c-3.6-10.6-2.5-18.8,5.4-26.9c11-11.6,21.4-23.8,31.1-36.5c8.5-10.8,7.6-20.1-1.2-27.8
	c-8.8-7.6-20.9-6.6-29.9,2.2c-2.4,2.4-4.7,5-7.5,8c-1.9-17.2,5.9-25.7,23.7-27.3c16.5-1.4,29.2,8.8,29.9,24.8
	c0.5,14.6,0.1,29.3,0.1,43.9c0,17.9,0,35.8-0.6,54.9C1263.7,267.4,1243.8,272.1,1224.6,275.7z"/>
<path class="st0" d="M1084.2,419.3h-15.3c-0.2-3.3-0.6-6.6-0.6-9.7c0-36.8-0.2-73.6,0.1-110.3c0-6.6-1.8-8.7-8.4-8.3
	c-10.2,0.6-20.5,0.4-30.7,0c-2.1-0.1-4.1-2.8-6.1-4.3c2-1.3,4-3.7,6-3.7c43.1-0.2,86.3-0.1,129.4,0.1c2,0,4.1,2.4,6.1,3.8
	c-2.2,1.4-4.4,4-6.6,4.1c-21.6,0.3-43.1,0.5-64.7,0c-7.2-0.1-9.4,1.7-9.3,9.2c0.4,37,0.2,74.1,0.2,111.2L1084.2,419.3z"/>
<path class="st0" d="M961.3,72.6c-0.5,16.1-13.6,29-29.7,29.3c-16.2,0-30.2-14.1-30-30.1s14.6-30,30.5-29.9
	C948,42,961.4,56,961.3,72.6z"/>
<path class="st0" d="M1262.5,132.1c-0.1,13.5-5.1,22-15.2,26.9c-10.1,4.8-19.3,1.4-27.2-5.8c-11.6-10.8-13.7-29.7-4.6-41.4
	c12.3-15.9,35-11.7,43.7,8.2C1260.7,123.9,1261.8,127.9,1262.5,132.1z"/>
<path class="st1" d="M893.4,157.7c0.4,2.5,0.7,5.1,0.8,7.7c0,26.2,0.1,52.5,0,78.7c0,2.4-2,4.7-3.1,7.1c-0.8-2.3-2.2-4.7-2.2-7
	c-0.2-26.2-0.2-52.5-0.1-78.7c0.2-2.7,0.7-5.3,1.3-7.9L893.4,157.7z"/>
<path class="st1" d="M883.3,250.8h-26.6c-2.1-11.6-1.7-12,9.4-12.1c2.8,0,5.5,0,8.3,0C885,238.7,885.1,238.8,883.3,250.8z"/>
<text transform="matrix(1 0 0 1 70 260)" class="st0 st2 st3 st4">QUOTE SEARCH</text>
</svg>
