<svg id="Layer_1" data-name="Layer 1" xmlns="http://www.w3.org/2000/svg" viewBox="0 0 841.69 280.28"><defs><style>.cls-1{fill:#fff;}.cls-2{fill:#a6cee3;}</style></defs><path class="cls-1" d="M723.54,164.85v0h-138l-260,0c-12.79,0-22.55,9-22.58,21q-.21,118.49-.09,237c0,4.62,2.16,9.79,4.79,13.72,4.78,7.18,12.54,8.39,20.78,8.38q175-.24,350-.24,220.21,0,440.44.41c14.65,0,25.74-9.67,25.62-25.64-.57-77.32-.41-154.65-.54-232a25,25,0,0,0-.65-6.41c-2.79-10.42-11-16.24-22.84-16.24Z" transform="translate(-302.83 -164.85)"/><path class="cls-2" d="M723.54,164.85h397c11.8,0,20,5.82,22.84,16.24a25,25,0,0,1,.65,6.41c.13,77.32,0,154.65.54,232,.12,16-11,25.68-25.62,25.64q-220.22-.57-440.44-.41-175,0-350,.24c-8.24,0-16-1.2-20.78-8.38-2.63-3.93-4.78-9.1-4.79-13.72q-.3-118.49.09-237c0-12.07,9.79-21,22.58-21l260,0h138Zm218,11.43v-.12H766.58c-13.47,0-21.52,8-21.52,21.38l0,213.42c0,14.17,7.79,22,21.87,22l251.91-.05q48.48,0,97,0c12.4,0,20.3-7.95,20.3-20.28q0-108.45-.14-216.91a23.17,23.17,0,0,0-4-11.95c-4.12-6.25-10.89-7.49-18.08-7.48Q1027.72,176.35,941.51,176.28ZM378.82,387.05c23.79,0,39.38-16.11,39.39-40.73,0-25-15.46-41.77-38.49-41.79-23.74,0-39.33,16.35-39.44,41.41C340.18,370.35,355.84,387.05,378.82,387.05Zm227.07-26c1.47-.09,2.44-.19,3.42-.19q16.74,0,33.47,0c2.23,0,4.42.2,4.39-3.15C647,339,635,322.28,611.47,327.48c-15.87,3.5-24.73,19.35-21.3,36.53,3.09,15.45,16.45,24.86,32.46,22.86,12.57-1.56,20.79-8.37,22.81-19.27-6.05.5-12.06-1.81-17.33,4.16-3.91,4.42-10.11,3.92-15.45,1.65C607.62,371.27,606.1,366.75,605.89,361.05Zm-22.68-12.73a19.11,19.11,0,0,0-5.92-14.22c-11.17-11.32-34.71-9.63-44.18,3.15-7.61,10.25-8.24,26.71-1.43,37.24,6.58,10.18,19.64,14.69,33.17,11.46,10.83-2.58,19.3-13.1,17.92-22.72-2.9,0-5.89.18-8.84-.05-3.52-.27-5.82.31-6.92,4.39-1.24,4.6-5,6.91-9.79,7.2-5.1.3-9.19-1.55-11.54-6.25-3.31-6.6-3.36-13.56-1.16-20.4,1.66-5.2,5-9.13,11-9.38,5.7-.24,10.07,1.72,11.84,7.75a3.36,3.36,0,0,0,2.55,1.75C574.22,348.42,578.51,348.32,583.21,348.32Zm-87-20.4H485.44c.59-2.94.29-6.49,1.68-7.38,2.82-1.79,6.56-2.14,10.14-3.15v-10.2c-17.38-4.07-25.3,1.81-27.82,20.66l-8.81.4v10.3l9.44.68v45.62h16.07V339.27C497.65,338.06,497.65,338.06,496.22,327.92Zm-49.86,57.13v-45.7c3.73-.47,8.17.23,9.85-1.6s.35-6.13.35-9.82h-10.9c.62-2.95.36-6.5,1.77-7.4,2.82-1.8,6.57-2.14,10.17-3.16V306.7c-6.93-.4-13.56-1.32-19.73,2.24-7.37,4.23-7.7,11.74-8.11,18.06-3.06,2.94-9-2.48-9.13,4.87-.1,6.08-.17,6.08,9.47,7.55v45.63ZM421.92,280.76c0-10.31.21-20.12-.08-29.92-.16-5.59-2.21-10.61-8.09-12.61-6.16-2.11-12.13-1.83-17.33,2.75a30.85,30.85,0,0,1-2.85,1.87V222.24H382.1V280.8h11.71c0-2,0-3.81,0-5.59.06-6.66,0-13.32.23-20,.23-5.74,3.65-9.06,8.63-8.93,4.7.13,7.15,3,7.38,8.84.13,3.33.07,6.66.08,10,0,5.11,0,10.22,0,15.62Zm48.5-12.91c-4.89,0-9.25-1.2-13.17,3.09-3,3.29-7.74,2.94-11.69.91-3.34-1.71-4.86-4.76-4.31-9.21h5c7.16,0,14.33.18,21.48-.1,1.38-.05,3.89-1.84,3.87-2.79-.21-12.24-7.22-22.55-20.69-22.73-14.35-.19-24,11.74-21.87,27.08A20.58,20.58,0,0,0,448.19,282C459.7,282.93,467.4,278.2,470.42,267.85Zm-94.16-45.51H328.2V233h17.63v48a60.15,60.15,0,0,1,7.56.06c4.54.63,5.62-1.23,5.52-5.58-.3-12.48-.12-25-.11-37.48,0-1.57.16-3.15.27-5.11h17.19ZM517.78,385.05V328.46H502.45v56.59Zm.14-78.4H502.33v12.46h15.59Z" transform="translate(-302.83 -164.85)"/><path class="cls-1" d="M941.51,176.28q86.22,0,172.43,0c7.19,0,14,1.23,18.08,7.48a23.17,23.17,0,0,1,4,11.95q.35,108.45.14,216.91c0,12.33-7.9,20.26-20.3,20.28q-48.48.09-97,0L767,432.94c-14.08,0-21.87-7.81-21.87-22l0-213.42c0-13.37,8.05-21.37,21.52-21.38H941.51ZM940.82,430v.11h173.46c13.43,0,19.39-6.06,19.39-19.62q0-106,0-211.95c0-13.43-6-19.47-19.54-19.47l-112.48.05q-117.72,0-235.45.08c-11.48,0-18.08,6.31-18.09,17.28q0,107.48,0,215c0,12.55,6.16,18.57,18.78,18.57Z" transform="translate(-302.83 -164.85)"/><path class="cls-1" d="M378.82,387.05c-23,0-38.64-16.7-38.54-41.11.11-25.06,15.7-41.42,39.44-41.41,23,0,38.51,16.83,38.49,41.79C418.2,370.94,402.61,387.05,378.82,387.05Zm-21.25-41c.52,3.44.75,7,1.59,10.31,2.5,10.07,9.72,15.93,19.58,16.18S396,367.3,399,357.3a37.65,37.65,0,0,0-.65-24.49c-5.08-13.63-21.34-18.34-32.23-9.05C359.46,329.44,357.86,337.53,357.57,346Z" transform="translate(-302.83 -164.85)"/><path class="cls-1" d="M605.89,361.05c.21,5.7,1.73,10.22,6.77,12.36,5.34,2.27,11.54,2.77,15.45-1.65,5.27-6,11.28-3.66,17.33-4.16-2,10.9-10.24,17.71-22.81,19.27-16,2-29.37-7.41-32.46-22.86-3.43-17.18,5.43-33,21.3-36.53C635,322.28,647,339,647.17,357.74c0,3.35-2.16,3.16-4.39,3.15q-16.74,0-33.47,0C608.33,360.86,607.36,361,605.89,361.05Zm24.57-11c-1.67-8.53-5.65-11.84-13.22-11.28-6.5.49-10.53,4.57-10.91,11.28Z" transform="translate(-302.83 -164.85)"/><path class="cls-1" d="M583.21,348.32c-4.7,0-9,.1-13.27-.08a3.36,3.36,0,0,1-2.55-1.75c-1.77-6-6.14-8-11.84-7.75-6,.25-9.37,4.18-11,9.38-2.2,6.84-2.15,13.8,1.16,20.4,2.35,4.7,6.44,6.55,11.54,6.25,4.79-.29,8.55-2.6,9.79-7.2,1.1-4.08,3.4-4.66,6.92-4.39,3,.23,5.94.05,8.84.05,1.38,9.62-7.09,20.14-17.92,22.72-13.53,3.23-26.59-1.28-33.17-11.46-6.81-10.53-6.18-27,1.43-37.24,9.47-12.78,33-14.47,44.18-3.15A19.11,19.11,0,0,1,583.21,348.32Z" transform="translate(-302.83 -164.85)"/><path class="cls-1" d="M496.22,327.92c1.43,10.14,1.43,10.14-10.08,11.35v45.58H470.07V339.23l-9.44-.68v-10.3l8.81-.4c2.52-18.85,10.44-24.73,27.82-20.66v10.2c-3.58,1-7.32,1.36-10.14,3.15-1.39.89-1.09,4.44-1.68,7.38Z" transform="translate(-302.83 -164.85)"/><path class="cls-1" d="M446.36,385.05H430.1V339.42c-9.64-1.47-9.57-1.47-9.47-7.55.13-7.35,6.07-1.93,9.13-4.87.41-6.32.74-13.83,8.11-18.06,6.17-3.56,12.8-2.64,19.73-2.24v10.67c-3.6,1-7.35,1.36-10.17,3.16-1.41.9-1.15,4.45-1.77,7.4h10.9c0,3.69,1.26,8.08-.35,9.82s-6.12,1.13-9.85,1.6Z" transform="translate(-302.83 -164.85)"/><path class="cls-1" d="M421.92,280.76H410.13c0-5.4,0-10.51,0-15.62,0-3.33.05-6.66-.08-10-.23-5.85-2.68-8.71-7.38-8.84-5-.13-8.4,3.19-8.63,8.93-.27,6.65-.17,13.31-.23,20,0,1.78,0,3.56,0,5.59H382.1V222.24h11.47v20.61a30.85,30.85,0,0,0,2.85-1.87c5.2-4.58,11.17-4.86,17.33-2.75,5.88,2,7.93,7,8.09,12.61C422.13,260.64,421.92,270.45,421.92,280.76Z" transform="translate(-302.83 -164.85)"/><path class="cls-1" d="M470.42,267.85c-3,10.35-10.72,15.08-22.23,14.18A20.58,20.58,0,0,1,429,264.1c-2.1-15.34,7.52-27.27,21.87-27.08,13.47.18,20.48,10.49,20.69,22.73,0,.95-2.49,2.74-3.87,2.79-7.15.28-14.32.11-21.48.1h-5c-.55,4.45,1,7.5,4.31,9.21,3.95,2,8.68,2.38,11.69-.91C461.17,266.65,465.53,267.9,470.42,267.85Zm-11.4-13c-1.24-6.83-3.83-9-9.64-8.7-5,.29-7.75,3.22-8,8.7Z" transform="translate(-302.83 -164.85)"/><path class="cls-1" d="M376.26,222.34v10.6H359.07c-.11,2-.26,3.54-.27,5.11,0,12.5-.19,25,.11,37.48.1,4.35-1,6.21-5.52,5.58a60.15,60.15,0,0,0-7.56-.06V233H328.2V222.34Z" transform="translate(-302.83 -164.85)"/><path class="cls-1" d="M517.78,385.05H502.45V328.46h15.33Z" transform="translate(-302.83 -164.85)"/><path class="cls-1" d="M517.92,306.65v12.46H502.33V306.65Z" transform="translate(-302.83 -164.85)"/><path class="cls-2" d="M940.82,430h-174c-12.62,0-18.78-6-18.78-18.57q0-107.48,0-214.95c0-11,6.61-17.27,18.09-17.28q117.73-.06,235.45-.08l112.48-.05c13.53,0,19.54,6,19.54,19.47q0,106,0,212c0,13.56-6,19.61-19.39,19.62H940.82ZM815.52,316.22c-3.57,0-6.88,0-10.2,0-6.47,0-6.52,0-6.52,6.28q0,20.75,0,41.49c0,8.91,0,8.91,8.93,8.91h33.42c0,7.33-.6,14.19.27,20.87.4,3.06,3.13,7,5.85,8.24,2.52,1.18,6.76.06,9.67-1.29,3.85-1.79,4.33-5.88,4.32-9.93-.06-23.16,0-46.32,0-69.48,0-1.49-.29-3.14.24-4.44.46-1.13,1.89-1.87,2.89-2.78.82.92,2,1.7,2.36,2.77a12.09,12.09,0,0,1,.19,4v52c0,6.83-.15,13.67.12,20.49.24,6.31,4.83,10.22,10.85,9.73,5.7-.47,8.94-4.67,8.94-11.69q0-63,0-126c0-1.83.34-3.65.51-5.47l1.71-.1a31.83,31.83,0,0,1,.83,5.08c.06,15.16,0,30.33.07,45.49,0,4.94,2.78,7.82,7.09,8,4.48.16,7.51-2.45,7.54-7.4.13-20.49.39-41-.14-61.47-.31-12.13-8.25-19.16-20.36-19.37-12.32-.21-24.66-.15-37-.18-15.68-.05-23.22,7.51-23.24,23.31s0,31.33,0,47v5.25C816.49,306.44,816.49,306.44,815.52,316.22Zm220.74,44.54v-.26c3.33,0,6.66.06,10,0,3.5-.07,7.07.15,10.45-.54,2.76-.58,6-1.68,7.77-3.66A15,15,0,0,0,1067.4,340c-2-5-8.47-8.59-14.57-7.47-16.67,3.08-33.27,6.6-49.85,10.12-6.35,1.34-9.8,5.66-11.38,11.89-2,7.89-4.44,15.67-6.54,23.53-2.39,9-4.76,18-6.86,27-1.17,5,1,9.05,5.12,10.69s8.46.18,10.91-4.37a56.15,56.15,0,0,0,3.93-9.67c3.68-11.56,7.23-23.16,10.78-34.77,1.27-4.17,3.77-6.37,8.36-6.24C1023.61,360.89,1029.94,360.76,1036.26,360.76Zm-22.88,3.4v53.23h7.68V375.2h53.08v42.07h6.94v-5.4l0-128.38c0-.83,0-1.67,0-2.49.19-2.69-1.19-3.3-3.66-3.36-4-.1-3.5,2.58-3.5,5.06q0,37.71,0,75.43c0,1.91,0,3.82,0,6Zm-17.06-32,0,.27c8.1-.89,16.21-1.69,24.29-2.71a21.78,21.78,0,0,0,14.54-7.83c5.56-6.61,11.59-12.83,17.24-19.38,3.46-4,6.71-8.24,9.82-12.54,2.75-3.82,2.81-7.84-.54-11.39s-7.45-4.52-11.84-2.62a15.41,15.41,0,0,0-5.85,4.43c-7.11,9-13.84,18.29-21,27.23a13.94,13.94,0,0,1-6.72,4.42c-9.28,2.55-18.7,4.6-28.06,6.88-3.57.87-6.36,2.9-6,6.83.44,4.16,3.28,6.37,7.58,6.4C992,332.14,994.16,332.13,996.32,332.13Zm44.49-1.14c11.53-2.17,23.56-5,30.75,9.19.34-11.5.34-22.29.34-33.08,0-8.81.24-17.64-.09-26.45-.36-9.66-8-15.81-18-14.94-10.75,1-15.42,6.09-14.29,16.46,1.69-1.81,3.06-3.37,4.52-4.83,5.35-5.36,12.68-5.88,18-1.32s5.83,10.22.73,16.73a277.41,277.41,0,0,1-18.73,22C1039.33,319.64,1038.67,324.58,1040.81,331Zm-84.65,86.56v-4.9c0-22.33.14-44.66-.1-67,0-4.51,1.28-5.62,5.62-5.54,13,.27,26,.15,39,0,1.34,0,2.66-1.6,4-2.45-1.22-.79-2.44-2.25-3.67-2.26q-39-.24-78-.09c-1.21,0-2.41,1.47-3.62,2.25,1.23.92,2.43,2.56,3.7,2.62,6.16.26,12.34.34,18.49,0,4-.22,5.1,1.09,5.07,5-.18,22.16-.09,44.32-.06,66.49,0,1.91.22,3.82.35,5.86Zm-74-209c.09-10-8-18.51-17.61-18.55s-18.31,8.47-18.4,18,8.35,18.13,18.09,18.16A18.21,18.21,0,0,0,882.11,208.58Zm181.52,35.86a41.63,41.63,0,0,0-2-7.34c-5.25-12-18.92-14.49-26.35-4.92-5.48,7.06-4.25,18.45,2.78,24.93,4.75,4.37,10.2,6.51,16.4,3.52S1063.54,252.57,1063.63,244.44Z" transform="translate(-302.83 -164.85)"/><path class="cls-2" d="M357.57,346c.29-8.5,1.89-16.59,8.56-22.27,10.89-9.29,27.15-4.58,32.23,9.05A37.65,37.65,0,0,1,399,357.3c-3,10-10.42,15.48-20.27,15.22s-17.08-6.11-19.58-16.18C358.32,353,358.09,349.47,357.57,346Z" transform="translate(-302.83 -164.85)"/><path class="cls-2" d="M630.46,350H606.33c.38-6.71,4.41-10.79,10.91-11.28C624.81,338.19,628.79,341.5,630.46,350Z" transform="translate(-302.83 -164.85)"/><path class="cls-2" d="M459,254.83H441.41c.22-5.48,2.95-8.41,8-8.7C455.19,245.79,457.78,248,459,254.83Z" transform="translate(-302.83 -164.85)"/><path class="cls-1" d="M815.52,316.22c1-9.78,1-9.78,8.38-10.73v-5.25q0-23.49,0-47c0-15.8,7.56-23.36,23.24-23.31,12.32,0,24.66,0,37,.18,12.11.21,20,7.24,20.36,19.37.53,20.48.27,41,.14,61.47,0,5-3.06,7.56-7.54,7.4-4.31-.16-7.06-3-7.09-8-.09-15.16,0-30.33-.07-45.49a31.83,31.83,0,0,0-.83-5.08l-1.71.1c-.17,1.82-.51,3.64-.51,5.47q0,63,0,126c0,7-3.24,11.22-8.94,11.69-6,.49-10.61-3.42-10.85-9.73-.27-6.82-.11-13.66-.12-20.49v-52a12.09,12.09,0,0,0-.19-4c-.38-1.07-1.54-1.85-2.36-2.77-1,.91-2.43,1.65-2.89,2.78-.53,1.3-.24,2.95-.24,4.44,0,23.16,0,46.32,0,69.48,0,4-.47,8.14-4.32,9.93-2.91,1.35-7.15,2.47-9.67,1.29-2.72-1.28-5.45-5.18-5.85-8.24-.87-6.68-.27-13.54-.27-20.87H807.74c-8.94,0-8.93,0-8.93-8.91q0-20.75,0-41.49c0-6.23.05-6.27,6.52-6.28C808.64,316.21,812,316.22,815.52,316.22Zm25.67-56.34-2-.14a29.36,29.36,0,0,0-.81,4.77q-.06,23.72.08,47.42c0,1.42.87,2.83,1.33,4.24.65-1.41,1.85-2.83,1.86-4.25.13-15.81.09-31.61,0-47.42A42.62,42.62,0,0,0,841.19,259.88ZM835.09,316c1.1-7.3,1-7.38-5.35-7.31-1.66,0-3.32,0-5,0-6.72.05-6.91.29-5.67,7.29Z" transform="translate(-302.83 -164.85)"/><path class="cls-1" d="M1036.26,360.76c-6.32,0-12.65.13-19,0-4.59-.13-7.09,2.07-8.36,6.24-3.55,11.61-7.1,23.21-10.78,34.77a56.15,56.15,0,0,1-3.93,9.67c-2.45,4.55-6.68,6.05-10.91,4.37s-6.29-5.69-5.12-10.69c2.1-9.05,4.47-18,6.86-27,2.1-7.86,4.54-15.64,6.54-23.53,1.58-6.23,5-10.55,11.38-11.89,16.58-3.52,33.18-7,49.85-10.12,6.1-1.12,12.6,2.49,14.57,7.47a15,15,0,0,1-2.94,16.29c-1.79,2-5,3.08-7.77,3.66-3.38.69-7,.47-10.45.54-3.32.08-6.65,0-10,0Z" transform="translate(-302.83 -164.85)"/><path class="cls-1" d="M1013.38,364.16h60.53c0-2.21,0-4.12,0-6q0-37.72,0-75.43c0-2.48-.55-5.16,3.5-5.06,2.47.06,3.85.67,3.66,3.36,0,.82,0,1.66,0,2.49l0,128.38v5.4h-6.94V375.2h-53.08v42.19h-7.68Z" transform="translate(-302.83 -164.85)"/><path class="cls-1" d="M996.32,332.13c-2.16,0-4.32,0-6.48,0-4.3,0-7.14-2.24-7.58-6.4-.41-3.93,2.38-6,6-6.83,9.36-2.28,18.78-4.33,28.06-6.88a13.94,13.94,0,0,0,6.72-4.42c7.17-8.94,13.9-18.23,21-27.23a15.41,15.41,0,0,1,5.85-4.43c4.39-1.9,8.56-.87,11.84,2.62s3.29,7.57.54,11.39c-3.11,4.3-6.36,8.52-9.82,12.54-5.65,6.55-11.68,12.77-17.24,19.38a21.78,21.78,0,0,1-14.54,7.83c-8.08,1-16.19,1.82-24.29,2.71Z" transform="translate(-302.83 -164.85)"/><path class="cls-1" d="M1040.81,331c-2.14-6.41-1.48-11.35,3.24-16.21a277.41,277.41,0,0,0,18.73-22c5.1-6.51,4.6-12.12-.73-16.73s-12.61-4-18,1.32c-1.46,1.46-2.83,3-4.52,4.83-1.13-10.37,3.54-15.51,14.29-16.46,9.92-.87,17.59,5.28,18,14.94.33,8.81.09,17.64.09,26.45,0,10.79,0,21.58-.34,33.08C1064.37,326,1052.34,328.82,1040.81,331Z" transform="translate(-302.83 -164.85)"/><path class="cls-1" d="M956.16,417.55h-9.23c-.13-2-.35-3.95-.35-5.86,0-22.17-.12-44.33.06-66.49,0-3.95-1.06-5.26-5.07-5-6.15.34-12.33.26-18.49,0-1.27-.06-2.47-1.7-3.7-2.62,1.21-.78,2.41-2.25,3.62-2.25q39-.15,78,.09c1.23,0,2.45,1.47,3.67,2.26-1.33.85-2.65,2.43-4,2.45-13,.19-26,.31-39,0-4.34-.08-5.67,1-5.62,5.54.24,22.32.1,44.65.1,67Z" transform="translate(-302.83 -164.85)"/><path class="cls-1" d="M882.11,208.58a18.21,18.21,0,0,1-17.92,17.64c-9.74,0-18.17-8.5-18.09-18.16s8.77-18.08,18.4-18S882.2,198.58,882.11,208.58Z" transform="translate(-302.83 -164.85)"/><path class="cls-1" d="M1063.63,244.44c-.09,8.13-3.08,13.27-9.14,16.19s-11.65.85-16.4-3.52c-7-6.48-8.26-17.87-2.78-24.93,7.43-9.57,21.1-7.08,26.35,4.92A41.63,41.63,0,0,1,1063.63,244.44Z" transform="translate(-302.83 -164.85)"/><path class="cls-2" d="M841.19,259.88a42.62,42.62,0,0,1,.5,4.62c0,15.81.09,31.61,0,47.42,0,1.42-1.21,2.84-1.86,4.25-.46-1.41-1.32-2.82-1.33-4.24q-.16-23.71-.08-47.42a29.36,29.36,0,0,1,.81-4.77Z" transform="translate(-302.83 -164.85)"/><path class="cls-2" d="M835.09,316h-16c-1.24-7-1.05-7.24,5.67-7.29,1.66,0,3.32,0,5,0C836.12,308.66,836.19,308.74,835.09,316Z" transform="translate(-302.83 -164.85)"/>
<text fill='#FFF' font-family="Helvetica" x="70" y="260" font-size="24" letter-spacing="2px" font-weight="700">QUOTE SEARCH</text>
</svg>